<?xml version="1.0" encoding="utf-8"?>
<!-- Generator: Adobe Illustrator 19.2.0, SVG Export Plug-In . SVG Version: 6.00 Build 0)  -->
<svg version="1.1" id="Ebene_1" xmlns="http://www.w3.org/2000/svg" xmlns:xlink="http://www.w3.org/1999/xlink" x="0px" y="0px"
	 viewBox="0 0 446 200" style="enable-background:new 0 0 446 200;" xml:space="preserve">
<style type="text/css">
	.st0{fill:#929497;}
	.st1{fill:#58595B;}
	.st2{fill:#EB008B;}
	.st3{fill:#005AA9;}
	.st4{fill:#00ADEE;}
	.st5{fill:#231F20;}
</style>
<g>
	
		<rect x="224.2" y="83.2" transform="matrix(0.9206 -0.3904 0.3904 0.9206 -14.5201 96.9796)" class="st0" width="14.2" height="2"/>
</g>
<g>
	
		<rect x="178.2" y="75.8" transform="matrix(0.7187 -0.6953 0.6953 0.7187 -11.6399 149.6962)" class="st0" width="2" height="26.8"/>
</g>
<g>
	
		<rect x="201.8" y="57.6" transform="matrix(0.5615 -0.8275 0.8275 0.5615 43.1458 198.6246)" class="st0" width="14.3" height="2"/>
</g>
<g>
	
		<rect x="210" y="100" transform="matrix(7.468711e-02 -0.9972 0.9972 7.468711e-02 106.0371 316.2027)" class="st0" width="26.8" height="2"/>
</g>
<g>
	
		<rect x="186.7" y="97.2" transform="matrix(0.9941 -0.1081 0.1081 0.9941 -10.5012 20.9181)" class="st0" width="2" height="20.2"/>
</g>
<g>
	
		<rect x="179.7" y="68.2" transform="matrix(0.9345 -0.3559 0.3559 0.9345 -17.2136 69.6551)" class="st0" width="2" height="26.8"/>
</g>
<g>
	
		<rect x="194.4" y="95.5" transform="matrix(0.8293 -0.5588 0.5588 0.8293 -27.5333 127.7974)" class="st0" width="2" height="26.8"/>
</g>
<g>
	<rect x="179" y="84.9" transform="matrix(0.1685 -0.9857 0.9857 0.1685 55.9866 256.436)" class="st0" width="2" height="20.2"/>
</g>
<g>
	
		<rect x="173.9" y="100.2" transform="matrix(0.744 -0.6682 0.6682 0.744 -21.2745 146.9338)" class="st0" width="14.5" height="2"/>
</g>
<g>
	<line class="st0" x1="204.2" y1="65.7" x2="186.7" y2="56"/>
	<rect x="194.5" y="50.8" transform="matrix(0.4869 -0.8735 0.8735 0.4869 47.1341 201.9446)" class="st0" width="2" height="20"/>
</g>
<g>
	<rect x="200.7" y="51.7" transform="matrix(0.9488 -0.3159 0.3159 0.9488 -8.2608 66.7393)" class="st0" width="2" height="14.3"/>
</g>
<g>
	<rect x="202.2" y="61.4" transform="matrix(0.9166 -0.3999 0.3999 0.9166 -7.1651 90.4338)" class="st0" width="21.8" height="2"/>
</g>
<g>
	
		<rect x="220.8" y="76.1" transform="matrix(0.5207 -0.8537 0.8537 0.5207 44.3868 233.3131)" class="st0" width="18.4" height="2"/>
</g>
<g>
	<rect x="231.3" y="84" transform="matrix(0.4633 -0.8862 0.8862 0.4633 43.944 254.7172)" class="st0" width="2" height="14.2"/>
</g>
<g>
	<rect x="227.7" y="87" transform="matrix(0.9224 -0.3863 0.3863 0.9224 -19.5211 95.8479)" class="st0" width="2" height="19.1"/>
</g>
<g>
	<rect x="202.3" y="65.7" transform="matrix(1 -9.446382e-03 9.446382e-03 1 -0.707 1.9332)" class="st1" width="4" height="20.2"/>
</g>
<g>
	
		<rect x="185.1" y="89.2" transform="matrix(0.8581 -0.5135 0.5135 0.8581 -19.0916 113.3398)" class="st1" width="20.7" height="4"/>
</g>
<g>
	
		<rect x="212.6" y="76" transform="matrix(3.411527e-02 -0.9994 0.9994 3.411527e-02 121.0745 297.7564)" class="st1" width="4" height="20.4"/>
</g>
<g>
	<ellipse transform="matrix(0.9788 -0.205 0.205 0.9788 -13.265 43.7145)" class="st2" cx="204.4" cy="85.9" rx="9.7" ry="9.7"/>
</g>
<g>
	<ellipse transform="matrix(0.9788 -0.205 0.205 0.9788 -9.1375 43.2475)" class="st1" cx="204.2" cy="65.7" rx="5" ry="5"/>
</g>
<g>
	<ellipse transform="matrix(0.9788 -0.205 0.205 0.9788 -15.8223 40.297)" class="st1" cx="186.6" cy="96.5" rx="5" ry="5"/>
</g>
<g>
	<ellipse transform="matrix(0.9788 -0.205 0.205 0.9788 -13.0044 47.8164)" class="st1" cx="224.3" cy="86.7" rx="5" ry="5"/>
</g>
<g>
	<ellipse transform="matrix(0.9788 -0.205 0.205 0.9788 -9.169 49.6109)" class="st0" cx="234.9" cy="69.1" rx="3.5" ry="3.5"/>
</g>
<g>
	<ellipse transform="matrix(0.9788 -0.205 0.205 0.9788 -14.2298 50.8136)" class="st0" cx="238.2" cy="94.1" rx="3.5" ry="3.5"/>
</g>
<g>
	<ellipse transform="matrix(0.9788 -0.205 0.205 0.9788 -16.8061 49.936)" class="st0" cx="232.7" cy="106.1" rx="3.5" ry="3.5"/>
</g>
<g>
	<ellipse transform="matrix(0.9788 -0.205 0.205 0.9788 -6.9737 47.1678)" class="st0" cx="224.2" cy="57.2" rx="3.5" ry="3.5"/>
</g>
<g>
	<ellipse transform="matrix(0.9788 -0.205 0.205 0.9788 -6.3178 41.9447)" class="st0" cx="199.3" cy="51.5" rx="3.5" ry="3.5"/>
</g>
<g>
	<ellipse transform="matrix(0.9788 -0.205 0.205 0.9788 -7.5096 39.4534)" class="st0" cx="186.7" cy="56" rx="3.5" ry="3.5"/>
</g>
<g>
	<ellipse transform="matrix(0.9788 -0.205 0.205 0.9788 -15.521 36.902)" class="st0" cx="170.4" cy="93.4" rx="3.5" ry="3.5"/>
</g>
<g>
	<ellipse transform="matrix(0.9788 -0.205 0.205 0.9788 -17.9839 38.3741)" class="st0" cx="176.2" cy="106" rx="3.5" ry="3.5"/>
</g>
<g>
	<ellipse transform="matrix(0.9788 -0.205 0.205 0.9788 -19.9501 41.1414)" class="st0" cx="188.6" cy="116.9" rx="3.5" ry="3.5"/>
</g>
<path class="st3" d="M73.5,69.1c10.6,0,14,5.9,14,5.9h0.2c0,0-0.1-1.2-0.1-2.9v-8.6c0-1.4-0.8-2.1-2.1-2.1h-3.8V51.2h11.6
	c4.5,0,6.5,2,6.5,6.5v49c0,1.3,0.8,2.1,2.1,2.1h3.7V119H94.4c-4.4,0-6-2.1-6-5c0-1.1,0-1.8,0-1.8h-0.2c0,0-4,7.9-15.2,7.9
	c-13.2,0-21.7-10.4-21.7-25.5C51.3,79.2,60.6,69.1,73.5,69.1z M87.9,94.6c0-7.5-3.9-15-12-15c-6.7,0-12.2,5.4-12.2,15.1
	c0,9.3,4.9,15.3,12,15.3C82,109.9,87.9,105.4,87.9,94.6z"/>
<path class="st4" d="M299.3,51.2c-4.6,0-6.5,2-6.5,6.5v31.1c0,3.9,0.7,9.6,0.7,9.6h-0.2c0,0-3-5.6-5.6-9.6L262,51.2h-11.3v55.1
	c0,1.3-0.7,2-2,2v0h-8.3c-2.6,4.1-5.8,7.7-9.6,10.7h13.7h4.2h8c4.6,0,6.5-1.9,6.5-6.5v-31c0-3.9-0.7-9.6-0.7-9.6h0.2
	c0,0,3,5.7,5.6,9.6l25.8,37.5h11.2V63.9c0-1.3,0.8-2.1,2.1-2.1h4.1V51.2H299.3z"/>
<path class="st4" d="M324.2,61.8H318V51.2h29.3c12.2,0,21,6.3,21,17.5c0,7.5-4.1,12.4-8.2,14.5v0.2c7.4,2.2,10.9,9.1,10.9,16
	c0,13.6-10.8,19.7-23.4,19.7h-16.9c-4.5,0-6.5-1.9-6.5-6.5V61.8z M347.4,78.9c5.3,0,8.2-3.8,8.2-8.7c0-4.9-2.9-8.4-8.4-8.4h-10.5
	v17.1H347.4z M338.8,108.4h9.7c6.1,0,9.6-4.1,9.6-9.8c0-5.6-3.5-9.7-9.6-9.7h-11.9v17.5C336.7,107.7,337.5,108.4,338.8,108.4z"/>
<path class="st4" d="M376.6,108.4h7.8V61.8h-7.8V51.2H403v10.6h-6.8v46.6h6.8V119h-26.4V108.4z"/>
<path class="st3" d="M177.9,119.1l-0.2-0.1c-3.8-3-7-6.6-9.6-10.7h-34.7h0l0,0h-1.3c-5.7-0.6-8.1-3.9-9-11.6h33.6
	c0,0,0.3-3.1,0.3-4.5c0-12.9-7.6-23.1-21.6-23.1c-14.6,0-24.8,10.5-24.8,25.5c0,13.9,7,24.5,23.2,24.5c0.8,0,1.6,0,2.3,0H177.9z
	 M135.5,78.5c5,0,9,4,9.2,9.8h-21.1C124.9,82.2,129.3,78.5,135.5,78.5z"/>
<g>
	<path class="st5" d="M58.9,139.2l-0.5,0.1l-0.5-0.5c-0.3,0.2-0.6,0.3-0.9,0.4c-0.3,0.1-0.6,0.1-1,0.1c-1.1,0-1.9-0.4-2.4-1.1
		s-0.8-1.8-0.8-3.3c0-0.9,0.1-1.7,0.4-2.4c0.3-0.7,0.7-1.2,1.3-1.6s1.2-0.5,2-0.5c0.4,0,0.8,0,1.1,0.1c0.4,0,0.8,0.1,1.2,0.2v1.7
		h-0.6c-0.1-0.4-0.2-0.7-0.4-0.9s-0.3-0.4-0.6-0.5c-0.2-0.1-0.5-0.1-0.8-0.1c-0.5,0-0.9,0.1-1.2,0.4c-0.3,0.3-0.6,0.7-0.8,1.3
		c-0.2,0.6-0.3,1.3-0.3,2.1c0,0.8,0.1,1.5,0.2,2.1c0.2,0.6,0.4,1,0.7,1.3c0.3,0.3,0.7,0.4,1.2,0.4c0.5,0,0.9-0.1,1.1-0.3
		s0.4-0.6,0.4-1V137c0-0.4,0-0.7-0.1-0.8c0-0.2-0.1-0.3-0.2-0.4s-0.3-0.2-0.5-0.2v-0.3h2.6v0.3c-0.2,0.1-0.3,0.1-0.3,0.2
		S59,135.9,59,136c0,0.1-0.1,0.2-0.1,0.4c0,0.1,0,0.3,0,0.6V139.2z"/>
	<path class="st5" d="M66.7,130.6v1.9H66c-0.1-0.2-0.1-0.4-0.2-0.5c-0.1-0.2-0.1-0.3-0.2-0.4c-0.1-0.1-0.2-0.2-0.2-0.3
		c-0.1-0.1-0.2-0.1-0.3-0.1s-0.3,0-0.4,0h-2v3.3H64c0.2,0,0.3,0,0.4-0.1s0.2-0.1,0.3-0.3c0.1-0.1,0.1-0.3,0.2-0.6h0.6v2.4h-0.6
		c-0.1-0.3-0.1-0.4-0.2-0.6s-0.2-0.2-0.3-0.3c-0.1-0.1-0.2-0.1-0.4-0.1h-1.4v3.7h2c0.2,0,0.4,0,0.5-0.1c0.1,0,0.2-0.1,0.3-0.2
		s0.2-0.2,0.2-0.3c0.1-0.1,0.1-0.3,0.2-0.4c0-0.2,0.1-0.4,0.2-0.7h0.6l-0.1,2.2h-5.9v-0.3c0.3-0.1,0.4-0.1,0.5-0.2
		c0.1-0.1,0.1-0.2,0.2-0.4c0-0.2,0-0.4,0-0.7v-5.5c0-0.3,0-0.5,0-0.6c0-0.1-0.1-0.2-0.1-0.3c0-0.1-0.1-0.1-0.2-0.2
		c-0.1,0-0.2-0.1-0.4-0.1v-0.3H66.7z"/>
	<path class="st5" d="M70.1,135.5v2.2c0,0.3,0,0.5,0,0.7c0,0.1,0.1,0.2,0.1,0.3c0,0.1,0.1,0.1,0.2,0.2c0.1,0,0.2,0.1,0.4,0.1v0.3
		h-2.7v-0.3c0.3-0.1,0.4-0.1,0.5-0.2c0.1-0.1,0.1-0.2,0.2-0.4c0-0.2,0-0.4,0-0.7v-5.5c0-0.3,0-0.5,0-0.6c0-0.1-0.1-0.2-0.1-0.3
		c0-0.1-0.1-0.1-0.2-0.2c-0.1,0-0.2-0.1-0.4-0.1v-0.3h3.1c1,0,1.7,0.2,2.2,0.5s0.7,0.9,0.7,1.7c0,0.6-0.2,1.1-0.5,1.5
		c-0.3,0.4-0.8,0.7-1.4,1v0.1c0.3,0.1,0.5,0.3,0.7,0.5c0.2,0.2,0.4,0.5,0.6,0.9l0.6,1c0.2,0.3,0.3,0.5,0.4,0.7
		c0.1,0.2,0.2,0.3,0.4,0.4c0.1,0.1,0.3,0.1,0.5,0.2v0.3h-1.8c-0.2-0.2-0.3-0.5-0.5-0.7s-0.3-0.5-0.4-0.8l-0.6-1.1
		c-0.2-0.3-0.3-0.6-0.4-0.7c-0.1-0.2-0.2-0.3-0.3-0.3c-0.1-0.1-0.2-0.1-0.3-0.1c-0.1,0-0.3,0-0.5,0H70.1z M70.1,131.1v3.8h0.7
		c0.4,0,0.7,0,0.9-0.1s0.4-0.2,0.6-0.3c0.2-0.1,0.4-0.4,0.5-0.6c0.1-0.3,0.2-0.6,0.2-1c0-0.4-0.1-0.7-0.2-1
		c-0.1-0.3-0.3-0.5-0.6-0.6s-0.7-0.2-1.1-0.2C70.7,131.1,70.4,131.1,70.1,131.1z"/>
	<path class="st5" d="M85.3,130.9c-0.2,0-0.3,0.1-0.4,0.1c-0.1,0-0.1,0.1-0.2,0.2c0,0.1-0.1,0.2-0.1,0.3c0,0.1,0,0.4,0,0.6v5.5
		c0,0.3,0,0.5,0,0.6c0,0.1,0.1,0.2,0.1,0.3c0,0.1,0.1,0.1,0.2,0.2c0.1,0.1,0.2,0.1,0.4,0.2v0.3h-2.6v-0.3c0.2-0.1,0.4-0.1,0.5-0.2
		s0.2-0.2,0.2-0.3s0.1-0.4,0.1-0.7v-2.4c0-0.6,0-1.3,0-1.9c0-0.7,0-1.1,0.1-1.3h-0.1l-2.5,6.3h-0.7l-2.3-6.4h-0.1
		c0,0.3,0,0.7,0.1,1.4c0,0.7,0,1.4,0,2.1v2.3c0,0.3,0,0.5,0,0.6c0,0.1,0.1,0.2,0.1,0.3c0,0.1,0.1,0.1,0.2,0.2
		c0.1,0.1,0.2,0.1,0.4,0.2v0.3h-2.3v-0.3c0.3-0.1,0.4-0.1,0.5-0.2c0.1-0.1,0.1-0.2,0.2-0.4c0-0.2,0-0.4,0-0.7v-5.5
		c0-0.3,0-0.5,0-0.6c0-0.1-0.1-0.2-0.1-0.3c0-0.1-0.1-0.1-0.2-0.2c-0.1,0-0.2-0.1-0.4-0.1v-0.3h2.3l2.2,6.2l2.5-6.2h2.1V130.9z"/>
	<path class="st5" d="M91.2,139.2v-0.3c0.2,0,0.4-0.1,0.5-0.1c0.1-0.1,0.2-0.1,0.2-0.2s0.1-0.2,0.1-0.4c0-0.1,0-0.3-0.1-0.5
		s-0.1-0.4-0.1-0.6l-0.2-0.8h-3l-0.2,0.6c-0.1,0.3-0.2,0.6-0.2,0.7c0,0.2-0.1,0.3-0.1,0.4c0,0.3,0.1,0.4,0.2,0.6
		c0.1,0.1,0.3,0.2,0.6,0.2v0.3h-2.7v-0.3c0.2,0,0.4-0.2,0.6-0.4c0.2-0.2,0.3-0.6,0.5-1l2.6-7h1l2.2,7.1c0.1,0.3,0.2,0.6,0.3,0.8
		c0.1,0.2,0.2,0.3,0.3,0.4c0.1,0.1,0.3,0.2,0.5,0.2v0.3H91.2z M88.7,135.8h2.7l-1.2-4.1L88.7,135.8z"/>
	<path class="st5" d="M100.1,135.8c0.2,0.3,0.3,0.5,0.4,0.7c0.1,0.2,0.2,0.4,0.3,0.6h0.1c0-0.3,0-0.8-0.1-1.5c0-0.8,0-1.5,0-2.1
		v-1.3c0-0.3,0-0.5,0-0.6s0-0.2-0.1-0.3c0-0.1-0.1-0.1-0.2-0.2c-0.1,0-0.2-0.1-0.4-0.1v-0.3h2.3v0.3c-0.2,0.1-0.3,0.1-0.4,0.1
		c-0.1,0-0.1,0.1-0.2,0.2c0,0.1-0.1,0.2-0.1,0.3s0,0.4,0,0.7v7.1h-0.8l-3.5-5.9c-0.2-0.4-0.4-0.6-0.5-0.8c-0.1-0.2-0.2-0.3-0.3-0.5
		h-0.1c0,0.3,0.1,0.9,0.1,1.8s0,1.7,0,2.5v1.3c0,0.3,0,0.5,0,0.6c0,0.1,0.1,0.2,0.1,0.3c0,0.1,0.1,0.1,0.2,0.2
		c0.1,0.1,0.2,0.1,0.4,0.2v0.3h-2.3v-0.3c0.3-0.1,0.4-0.1,0.5-0.2c0.1-0.1,0.1-0.2,0.2-0.4c0-0.2,0-0.4,0-0.7v-5.5
		c0-0.3,0-0.5,0-0.6c0-0.1-0.1-0.2-0.1-0.3c0-0.1-0.1-0.1-0.2-0.2c-0.1,0-0.2-0.1-0.4-0.1v-0.3h2L100.1,135.8z"/>
	<path class="st5" d="M111.8,135.8c0.2,0.3,0.3,0.5,0.4,0.7c0.1,0.2,0.2,0.4,0.3,0.6h0.1c0-0.3,0-0.8-0.1-1.5c0-0.8,0-1.5,0-2.1
		v-1.3c0-0.3,0-0.5,0-0.6s0-0.2-0.1-0.3c0-0.1-0.1-0.1-0.2-0.2c-0.1,0-0.2-0.1-0.4-0.1v-0.3h2.3v0.3c-0.2,0.1-0.3,0.1-0.4,0.1
		c-0.1,0-0.1,0.1-0.2,0.2c0,0.1-0.1,0.2-0.1,0.3s0,0.4,0,0.7v7.1h-0.8l-3.5-5.9c-0.2-0.4-0.4-0.6-0.5-0.8c-0.1-0.2-0.2-0.3-0.3-0.5
		h-0.1c0,0.3,0.1,0.9,0.1,1.8s0,1.7,0,2.5v1.3c0,0.3,0,0.5,0,0.6c0,0.1,0.1,0.2,0.1,0.3c0,0.1,0.1,0.1,0.2,0.2
		c0.1,0.1,0.2,0.1,0.4,0.2v0.3h-2.3v-0.3c0.3-0.1,0.4-0.1,0.5-0.2c0.1-0.1,0.1-0.2,0.2-0.4c0-0.2,0-0.4,0-0.7v-5.5
		c0-0.3,0-0.5,0-0.6c0-0.1-0.1-0.2-0.1-0.3c0-0.1-0.1-0.1-0.2-0.2c-0.1,0-0.2-0.1-0.4-0.1v-0.3h2L111.8,135.8z"/>
	<path class="st5" d="M121.5,130.6v1.9h-0.6c-0.1-0.2-0.1-0.4-0.2-0.5c-0.1-0.2-0.1-0.3-0.2-0.4c-0.1-0.1-0.2-0.2-0.2-0.3
		c-0.1-0.1-0.2-0.1-0.3-0.1s-0.3,0-0.4,0h-2v3.3h1.4c0.2,0,0.3,0,0.4-0.1s0.2-0.1,0.3-0.3c0.1-0.1,0.1-0.3,0.2-0.6h0.6v2.4h-0.6
		c-0.1-0.3-0.1-0.4-0.2-0.6s-0.2-0.2-0.3-0.3c-0.1-0.1-0.2-0.1-0.4-0.1h-1.4v3.7h2c0.2,0,0.4,0,0.5-0.1c0.1,0,0.2-0.1,0.3-0.2
		s0.2-0.2,0.2-0.3c0.1-0.1,0.1-0.3,0.2-0.4c0-0.2,0.1-0.4,0.2-0.7h0.6l-0.1,2.2h-5.9v-0.3c0.3-0.1,0.4-0.1,0.5-0.2
		c0.1-0.1,0.1-0.2,0.2-0.4c0-0.2,0-0.4,0-0.7v-5.5c0-0.3,0-0.5,0-0.6c0-0.1-0.1-0.2-0.1-0.3c0-0.1-0.1-0.1-0.2-0.2
		c-0.1,0-0.2-0.1-0.4-0.1v-0.3H121.5z"/>
	<path class="st5" d="M122.7,130.6h6.9v2.2h-0.6c-0.1-0.4-0.2-0.7-0.3-0.9c-0.1-0.2-0.2-0.4-0.3-0.5c-0.1-0.1-0.2-0.2-0.3-0.2
		c-0.1,0-0.3-0.1-0.5-0.1h-0.8v6.5c0,0.2,0,0.4,0,0.6c0,0.1,0.1,0.3,0.1,0.4c0.1,0.1,0.1,0.2,0.2,0.2s0.2,0.1,0.5,0.1v0.3h-2.9v-0.3
		c0.1,0,0.2-0.1,0.3-0.1s0.2-0.1,0.2-0.1c0.1,0,0.1-0.1,0.2-0.2c0-0.1,0.1-0.2,0.1-0.3c0-0.1,0-0.3,0-0.6v-6.5h-0.8
		c-0.2,0-0.4,0-0.5,0.1c-0.1,0-0.2,0.1-0.4,0.2c-0.1,0.1-0.2,0.3-0.3,0.5c-0.1,0.2-0.2,0.5-0.3,0.8h-0.6V130.6z"/>
	<path class="st5" d="M135.9,132.2l-2,7.1h-1l-1.8-6.9c-0.1-0.3-0.1-0.5-0.2-0.7s-0.1-0.3-0.2-0.4s-0.1-0.2-0.2-0.2
		c-0.1-0.1-0.2-0.1-0.3-0.1v-0.3h2.7v0.3c-0.3,0.1-0.4,0.1-0.5,0.2c-0.1,0.1-0.2,0.2-0.2,0.4c0,0.1,0,0.3,0.1,0.5s0.1,0.4,0.2,0.7
		l1.3,5l2-7.2h1.1l1.7,7.2l1.5-4.8c0.2-0.6,0.3-1,0.3-1.3c0-0.3-0.1-0.4-0.2-0.6c-0.1-0.1-0.3-0.2-0.5-0.2v-0.3h2.5v0.3
		c-0.1,0-0.2,0.1-0.3,0.1s-0.1,0.1-0.2,0.2c-0.1,0.1-0.1,0.2-0.2,0.4c-0.1,0.2-0.2,0.4-0.3,0.8l-2.3,6.8h-0.9L135.9,132.2z"/>
	<path class="st5" d="M145.8,139.3c-0.5,0-1-0.1-1.4-0.3c-0.4-0.2-0.8-0.4-1.1-0.8c-0.3-0.4-0.5-0.8-0.7-1.4c-0.2-0.5-0.2-1.2-0.2-2
		c0-0.9,0.1-1.8,0.4-2.4s0.7-1.2,1.2-1.5c0.5-0.4,1.2-0.5,1.9-0.5c0.8,0,1.4,0.2,1.9,0.5c0.5,0.3,0.9,0.8,1.2,1.5
		c0.3,0.6,0.4,1.4,0.4,2.4c0,1-0.1,1.8-0.4,2.5c-0.3,0.7-0.7,1.2-1.3,1.5C147.2,139.2,146.5,139.3,145.8,139.3z M143.7,134.8
		c0,1.3,0.2,2.3,0.6,3c0.4,0.7,0.9,1,1.7,1c0.5,0,0.9-0.1,1.2-0.4s0.6-0.7,0.7-1.3c0.2-0.6,0.2-1.2,0.2-2c0-0.9-0.1-1.7-0.3-2.3
		c-0.2-0.6-0.4-1-0.8-1.3s-0.7-0.4-1.1-0.4c-0.4,0-0.7,0.1-1,0.3c-0.3,0.2-0.5,0.4-0.7,0.8c-0.2,0.3-0.3,0.7-0.4,1.2
		C143.8,133.7,143.7,134.2,143.7,134.8z"/>
	<path class="st5" d="M152.9,135.5v2.2c0,0.3,0,0.5,0,0.7c0,0.1,0.1,0.2,0.1,0.3c0,0.1,0.1,0.1,0.2,0.2c0.1,0,0.2,0.1,0.4,0.1v0.3
		h-2.7v-0.3c0.3-0.1,0.4-0.1,0.5-0.2c0.1-0.1,0.1-0.2,0.2-0.4c0-0.2,0-0.4,0-0.7v-5.5c0-0.3,0-0.5,0-0.6c0-0.1-0.1-0.2-0.1-0.3
		c0-0.1-0.1-0.1-0.2-0.2c-0.1,0-0.2-0.1-0.4-0.1v-0.3h3.1c1,0,1.7,0.2,2.2,0.5s0.7,0.9,0.7,1.7c0,0.6-0.2,1.1-0.5,1.5
		c-0.3,0.4-0.8,0.7-1.4,1v0.1c0.3,0.1,0.5,0.3,0.7,0.5c0.2,0.2,0.4,0.5,0.6,0.9l0.6,1c0.2,0.3,0.3,0.5,0.4,0.7
		c0.1,0.2,0.2,0.3,0.4,0.4c0.1,0.1,0.3,0.1,0.5,0.2v0.3h-1.8c-0.2-0.2-0.3-0.5-0.5-0.7s-0.3-0.5-0.4-0.8l-0.6-1.1
		c-0.2-0.3-0.3-0.6-0.4-0.7c-0.1-0.2-0.2-0.3-0.3-0.3c-0.1-0.1-0.2-0.1-0.3-0.1c-0.1,0-0.3,0-0.5,0H152.9z M152.9,131.1v3.8h0.7
		c0.4,0,0.7,0,0.9-0.1s0.4-0.2,0.6-0.3c0.2-0.1,0.4-0.4,0.5-0.6c0.1-0.3,0.2-0.6,0.2-1c0-0.4-0.1-0.7-0.2-1
		c-0.1-0.3-0.3-0.5-0.6-0.6s-0.7-0.2-1.1-0.2C153.4,131.1,153.1,131.1,152.9,131.1z"/>
	<path class="st5" d="M160.9,134.5h0.2c0.2,0,0.3,0,0.4-0.1c0.1-0.1,0.3-0.1,0.4-0.3c0.2-0.1,0.4-0.4,0.8-0.8c0.4-0.5,0.7-0.8,0.8-1
		c0.2-0.2,0.3-0.4,0.4-0.6c0.1-0.1,0.1-0.2,0.1-0.4c0-0.2,0-0.3-0.1-0.4s-0.2-0.1-0.4-0.1v-0.3h2.8v0.3c-0.1,0-0.3,0.1-0.4,0.2
		s-0.3,0.2-0.4,0.3c-0.1,0.1-0.3,0.3-0.6,0.6l-2.1,2.4l2.3,3.4c0.2,0.4,0.4,0.6,0.6,0.7s0.3,0.2,0.4,0.3s0.3,0.1,0.4,0.1v0.3h-2.8
		v-0.3c0.2,0,0.3,0,0.3-0.1c0.1,0,0.1-0.1,0.1-0.2c0-0.1,0-0.2-0.1-0.3c0-0.1-0.1-0.2-0.2-0.4l-1.5-2.2c-0.2-0.3-0.3-0.4-0.4-0.5
		s-0.2-0.1-0.3-0.2s-0.2-0.1-0.4-0.1h-0.3v2.7c0,0.3,0,0.5,0,0.6c0,0.1,0.1,0.2,0.1,0.3c0,0.1,0.1,0.1,0.2,0.2
		c0.1,0.1,0.2,0.1,0.4,0.2v0.3H159v-0.3c0.3-0.1,0.4-0.1,0.5-0.2c0.1-0.1,0.1-0.2,0.2-0.4c0-0.2,0-0.4,0-0.7v-5.5c0-0.3,0-0.5,0-0.6
		c0-0.1-0.1-0.2-0.1-0.3c0-0.1-0.1-0.1-0.2-0.2c-0.1,0-0.2-0.1-0.4-0.1v-0.3h2.7v0.3c-0.2,0-0.3,0.1-0.4,0.1c-0.1,0-0.1,0.1-0.2,0.2
		c0,0.1-0.1,0.2-0.1,0.3c0,0.1,0,0.4,0,0.6L160.9,134.5z"/>
	<path class="st5" d="M175.8,130.6v1.9h-0.6c-0.1-0.3-0.2-0.5-0.3-0.7c-0.1-0.2-0.2-0.3-0.3-0.4c-0.1-0.1-0.2-0.2-0.3-0.2
		s-0.3-0.1-0.5-0.1H172v3.5h1.3c0.2,0,0.3,0,0.4-0.1s0.2-0.2,0.3-0.3c0.1-0.1,0.1-0.4,0.2-0.7h0.6v2.7h-0.6
		c-0.1-0.3-0.1-0.5-0.2-0.7c-0.1-0.1-0.2-0.2-0.3-0.3c-0.1-0.1-0.2-0.1-0.4-0.1H172v2.5c0,0.3,0,0.5,0,0.6s0.1,0.3,0.1,0.4
		s0.2,0.2,0.3,0.2c0.1,0,0.3,0.1,0.4,0.1v0.3h-2.8v-0.3c0.3-0.1,0.4-0.1,0.5-0.2c0.1-0.1,0.1-0.2,0.2-0.4c0-0.2,0-0.4,0-0.7v-5.5
		c0-0.3,0-0.5,0-0.6c0-0.1-0.1-0.2-0.1-0.3c0-0.1-0.1-0.1-0.2-0.2c-0.1,0-0.2-0.1-0.4-0.1v-0.3H175.8z"/>
	<path class="st5" d="M180.3,139.3c-0.5,0-1-0.1-1.4-0.3c-0.4-0.2-0.8-0.4-1.1-0.8c-0.3-0.4-0.5-0.8-0.7-1.4c-0.2-0.5-0.2-1.2-0.2-2
		c0-0.9,0.1-1.8,0.4-2.4s0.7-1.2,1.2-1.5c0.5-0.4,1.2-0.5,1.9-0.5c0.8,0,1.4,0.2,1.9,0.5c0.5,0.3,0.9,0.8,1.2,1.5
		c0.3,0.6,0.4,1.4,0.4,2.4c0,1-0.1,1.8-0.4,2.5c-0.3,0.7-0.7,1.2-1.3,1.5C181.7,139.2,181,139.3,180.3,139.3z M178.2,134.8
		c0,1.3,0.2,2.3,0.6,3c0.4,0.7,0.9,1,1.7,1c0.5,0,0.9-0.1,1.2-0.4s0.6-0.7,0.7-1.3c0.2-0.6,0.2-1.2,0.2-2c0-0.9-0.1-1.7-0.3-2.3
		c-0.2-0.6-0.4-1-0.8-1.3s-0.7-0.4-1.1-0.4c-0.4,0-0.7,0.1-1,0.3c-0.3,0.2-0.5,0.4-0.7,0.8c-0.2,0.3-0.3,0.7-0.4,1.2
		C178.3,133.7,178.2,134.2,178.2,134.8z"/>
	<path class="st5" d="M187.4,135.5v2.2c0,0.3,0,0.5,0,0.7c0,0.1,0.1,0.2,0.1,0.3c0,0.1,0.1,0.1,0.2,0.2c0.1,0,0.2,0.1,0.4,0.1v0.3
		h-2.7v-0.3c0.3-0.1,0.4-0.1,0.5-0.2c0.1-0.1,0.1-0.2,0.2-0.4c0-0.2,0-0.4,0-0.7v-5.5c0-0.3,0-0.5,0-0.6c0-0.1-0.1-0.2-0.1-0.3
		c0-0.1-0.1-0.1-0.2-0.2c-0.1,0-0.2-0.1-0.4-0.1v-0.3h3.1c1,0,1.7,0.2,2.2,0.5c0.5,0.4,0.7,0.9,0.7,1.7c0,0.6-0.2,1.1-0.5,1.5
		c-0.3,0.4-0.8,0.7-1.4,1v0.1c0.3,0.1,0.5,0.3,0.7,0.5c0.2,0.2,0.4,0.5,0.6,0.9l0.6,1c0.2,0.3,0.3,0.5,0.4,0.7
		c0.1,0.2,0.2,0.3,0.4,0.4c0.1,0.1,0.3,0.1,0.5,0.2v0.3H191c-0.2-0.2-0.3-0.5-0.5-0.7s-0.3-0.5-0.4-0.8l-0.6-1.1
		c-0.2-0.3-0.3-0.6-0.4-0.7c-0.1-0.2-0.2-0.3-0.3-0.3c-0.1-0.1-0.2-0.1-0.3-0.1c-0.1,0-0.3,0-0.5,0H187.4z M187.4,131.1v3.8h0.7
		c0.4,0,0.7,0,0.9-0.1s0.4-0.2,0.6-0.3c0.2-0.1,0.4-0.4,0.5-0.6c0.1-0.3,0.2-0.6,0.2-1c0-0.4-0.1-0.7-0.2-1
		c-0.1-0.3-0.3-0.5-0.6-0.6s-0.7-0.2-1.1-0.2C187.9,131.1,187.6,131.1,187.4,131.1z"/>
	<path class="st5" d="M196.4,139.2v-0.3c0.3-0.1,0.4-0.1,0.5-0.2c0.1-0.1,0.1-0.2,0.2-0.4s0-0.4,0-0.7v-5.5c0-0.3,0-0.5,0-0.6
		c0-0.1-0.1-0.2-0.1-0.3s-0.1-0.1-0.2-0.2c-0.1,0-0.2-0.1-0.4-0.1v-0.3h3.5c0.7,0,1.2,0.1,1.6,0.2c0.4,0.1,0.7,0.4,0.9,0.6
		c0.2,0.3,0.3,0.6,0.3,1.1c0,0.4-0.1,0.7-0.2,1c-0.1,0.3-0.3,0.5-0.6,0.7s-0.5,0.3-0.9,0.5v0.1c0.6,0.2,1,0.4,1.3,0.8
		c0.3,0.4,0.4,0.8,0.4,1.3c0,0.6-0.1,1-0.4,1.4c-0.3,0.4-0.6,0.6-1.1,0.8s-1,0.2-1.7,0.2H196.4z M199.4,134.4c0.6,0,1.1-0.2,1.5-0.5
		c0.3-0.3,0.5-0.8,0.5-1.4c0-0.3,0-0.5-0.1-0.7c-0.1-0.2-0.2-0.3-0.4-0.5c-0.2-0.1-0.4-0.2-0.6-0.2s-0.5-0.1-0.7-0.1
		c-0.2,0-0.4,0-0.6,0c-0.3,0-0.5,0-0.6,0v3.3H199.4z M198.3,138.6c0.3,0,0.7,0,1,0c0.6,0,1-0.1,1.3-0.2c0.3-0.1,0.5-0.3,0.7-0.6
		c0.1-0.3,0.2-0.6,0.2-1s-0.1-0.7-0.2-1s-0.4-0.5-0.7-0.6s-0.7-0.2-1.3-0.2h-1V138.6z"/>
	<path class="st5" d="M206.2,137.6c0,0.3,0,0.5,0,0.6c0,0.1,0.1,0.2,0.1,0.3c0,0.1,0.1,0.1,0.2,0.2s0.2,0.1,0.4,0.2v0.3h-2.7v-0.3
		c0.3-0.1,0.4-0.1,0.5-0.2c0.1-0.1,0.1-0.2,0.2-0.4s0-0.4,0-0.7v-5.5c0-0.3,0-0.5,0-0.6c0-0.1-0.1-0.2-0.1-0.3s-0.1-0.1-0.2-0.2
		c-0.1,0-0.2-0.1-0.4-0.1v-0.3h2.7v0.3c-0.2,0-0.3,0.1-0.4,0.1c-0.1,0-0.1,0.1-0.2,0.2c0,0.1-0.1,0.2-0.1,0.3c0,0.1,0,0.4,0,0.6
		V137.6z"/>
	<path class="st5" d="M211.9,139.3c-0.5,0-1-0.1-1.4-0.3s-0.8-0.4-1.1-0.8c-0.3-0.4-0.5-0.8-0.7-1.4s-0.2-1.2-0.2-2
		c0-0.9,0.1-1.8,0.4-2.4c0.3-0.7,0.7-1.2,1.2-1.5s1.2-0.5,1.9-0.5c0.8,0,1.4,0.2,1.9,0.5c0.5,0.3,0.9,0.8,1.2,1.5
		c0.3,0.6,0.4,1.4,0.4,2.4c0,1-0.1,1.8-0.4,2.5c-0.3,0.7-0.7,1.2-1.3,1.5C213.3,139.2,212.6,139.3,211.9,139.3z M209.8,134.8
		c0,1.3,0.2,2.3,0.6,3s0.9,1,1.7,1c0.5,0,0.9-0.1,1.2-0.4c0.3-0.3,0.6-0.7,0.7-1.3c0.2-0.6,0.2-1.2,0.2-2c0-0.9-0.1-1.7-0.3-2.3
		s-0.4-1-0.8-1.3c-0.3-0.3-0.7-0.4-1.1-0.4c-0.4,0-0.7,0.1-1,0.3c-0.3,0.2-0.5,0.4-0.7,0.8s-0.3,0.7-0.4,1.2
		C209.9,133.7,209.8,134.2,209.8,134.8z"/>
	<path class="st5" d="M219,137.6c0,0.3,0,0.5,0,0.6c0,0.1,0.1,0.2,0.1,0.3c0,0.1,0.1,0.1,0.2,0.2s0.2,0.1,0.4,0.2v0.3H217v-0.3
		c0.3-0.1,0.4-0.1,0.5-0.2c0.1-0.1,0.1-0.2,0.2-0.4s0-0.4,0-0.7v-5.5c0-0.3,0-0.5,0-0.6c0-0.1-0.1-0.2-0.1-0.3s-0.1-0.1-0.2-0.2
		c-0.1,0-0.2-0.1-0.4-0.1v-0.3h2.7v0.3c-0.2,0-0.3,0.1-0.4,0.1c-0.1,0-0.1,0.1-0.2,0.2c0,0.1-0.1,0.2-0.1,0.3c0,0.1,0,0.4,0,0.6
		V137.6z"/>
	<path class="st5" d="M226.3,135.8c0.2,0.3,0.3,0.5,0.4,0.7s0.2,0.4,0.3,0.6h0.1c0-0.3,0-0.8-0.1-1.5c0-0.8,0-1.5,0-2.1v-1.3
		c0-0.3,0-0.5,0-0.6c0-0.1,0-0.2-0.1-0.3c0-0.1-0.1-0.1-0.2-0.2c-0.1,0-0.2-0.1-0.4-0.1v-0.3h2.3v0.3c-0.2,0.1-0.3,0.1-0.4,0.1
		s-0.1,0.1-0.2,0.2s-0.1,0.2-0.1,0.3s0,0.4,0,0.7v7.1h-0.8l-3.5-5.9c-0.2-0.4-0.4-0.6-0.5-0.8c-0.1-0.2-0.2-0.3-0.3-0.5h-0.1
		c0,0.3,0.1,0.9,0.1,1.8s0,1.7,0,2.5v1.3c0,0.3,0,0.5,0,0.6c0,0.1,0.1,0.2,0.1,0.3c0,0.1,0.1,0.1,0.2,0.2s0.2,0.1,0.4,0.2v0.3h-2.3
		v-0.3c0.3-0.1,0.4-0.1,0.5-0.2c0.1-0.1,0.1-0.2,0.2-0.4s0-0.4,0-0.7v-5.5c0-0.3,0-0.5,0-0.6c0-0.1-0.1-0.2-0.1-0.3
		s-0.1-0.1-0.2-0.2c-0.1,0-0.2-0.1-0.4-0.1v-0.3h2L226.3,135.8z"/>
	<path class="st5" d="M235.9,130.6v1.9h-0.6c-0.1-0.3-0.2-0.5-0.3-0.7s-0.2-0.3-0.3-0.4c-0.1-0.1-0.2-0.2-0.3-0.2s-0.3-0.1-0.5-0.1
		H232v3.5h1.3c0.2,0,0.3,0,0.4-0.1s0.2-0.2,0.3-0.3c0.1-0.1,0.1-0.4,0.2-0.7h0.6v2.7h-0.6c-0.1-0.3-0.1-0.5-0.2-0.7
		c-0.1-0.1-0.2-0.2-0.3-0.3s-0.2-0.1-0.4-0.1H232v2.5c0,0.3,0,0.5,0,0.6s0.1,0.3,0.1,0.4c0.1,0.1,0.2,0.2,0.3,0.2
		c0.1,0,0.3,0.1,0.4,0.1v0.3h-2.8v-0.3c0.3-0.1,0.4-0.1,0.5-0.2c0.1-0.1,0.1-0.2,0.2-0.4s0-0.4,0-0.7v-5.5c0-0.3,0-0.5,0-0.6
		c0-0.1-0.1-0.2-0.1-0.3s-0.1-0.1-0.2-0.2c-0.1,0-0.2-0.1-0.4-0.1v-0.3H235.9z"/>
	<path class="st5" d="M240.3,139.3c-0.5,0-1-0.1-1.4-0.3s-0.8-0.4-1.1-0.8c-0.3-0.4-0.5-0.8-0.7-1.4s-0.2-1.2-0.2-2
		c0-0.9,0.1-1.8,0.4-2.4c0.3-0.7,0.7-1.2,1.2-1.5s1.2-0.5,1.9-0.5c0.8,0,1.4,0.2,1.9,0.5c0.5,0.3,0.9,0.8,1.2,1.5
		c0.3,0.6,0.4,1.4,0.4,2.4c0,1-0.1,1.8-0.4,2.5c-0.3,0.7-0.7,1.2-1.3,1.5C241.7,139.2,241.1,139.3,240.3,139.3z M238.3,134.8
		c0,1.3,0.2,2.3,0.6,3s0.9,1,1.7,1c0.5,0,0.9-0.1,1.2-0.4c0.3-0.3,0.6-0.7,0.7-1.3c0.2-0.6,0.2-1.2,0.2-2c0-0.9-0.1-1.7-0.3-2.3
		s-0.4-1-0.8-1.3c-0.3-0.3-0.7-0.4-1.1-0.4c-0.4,0-0.7,0.1-1,0.3c-0.3,0.2-0.5,0.4-0.7,0.8s-0.3,0.7-0.4,1.2
		C238.3,133.7,238.3,134.2,238.3,134.8z"/>
	<path class="st5" d="M247.4,135.5v2.2c0,0.3,0,0.5,0,0.7s0.1,0.2,0.1,0.3c0,0.1,0.1,0.1,0.2,0.2c0.1,0,0.2,0.1,0.4,0.1v0.3h-2.7
		v-0.3c0.3-0.1,0.4-0.1,0.5-0.2c0.1-0.1,0.1-0.2,0.2-0.4s0-0.4,0-0.7v-5.5c0-0.3,0-0.5,0-0.6c0-0.1-0.1-0.2-0.1-0.3
		s-0.1-0.1-0.2-0.2c-0.1,0-0.2-0.1-0.4-0.1v-0.3h3.1c1,0,1.7,0.2,2.2,0.5c0.5,0.4,0.7,0.9,0.7,1.7c0,0.6-0.2,1.1-0.5,1.5
		s-0.8,0.7-1.4,1v0.1c0.3,0.1,0.5,0.3,0.7,0.5c0.2,0.2,0.4,0.5,0.6,0.9l0.6,1c0.2,0.3,0.3,0.5,0.4,0.7c0.1,0.2,0.2,0.3,0.4,0.4
		c0.1,0.1,0.3,0.1,0.5,0.2v0.3H251c-0.2-0.2-0.3-0.5-0.5-0.7c-0.1-0.3-0.3-0.5-0.4-0.8l-0.6-1.1c-0.2-0.3-0.3-0.6-0.4-0.7
		c-0.1-0.2-0.2-0.3-0.3-0.3s-0.2-0.1-0.3-0.1s-0.3,0-0.5,0H247.4z M247.4,131.1v3.8h0.7c0.4,0,0.7,0,0.9-0.1s0.4-0.2,0.6-0.3
		c0.2-0.1,0.4-0.4,0.5-0.6s0.2-0.6,0.2-1c0-0.4-0.1-0.7-0.2-1c-0.1-0.3-0.3-0.5-0.6-0.6s-0.7-0.2-1.1-0.2
		C247.9,131.1,247.6,131.1,247.4,131.1z"/>
	<path class="st5" d="M262.6,130.9c-0.2,0-0.3,0.1-0.4,0.1c-0.1,0-0.1,0.1-0.2,0.2c0,0.1-0.1,0.2-0.1,0.3c0,0.1,0,0.4,0,0.6v5.5
		c0,0.3,0,0.5,0,0.6c0,0.1,0.1,0.2,0.1,0.3c0,0.1,0.1,0.1,0.2,0.2s0.2,0.1,0.4,0.2v0.3h-2.6v-0.3c0.2-0.1,0.4-0.1,0.5-0.2
		c0.1-0.1,0.2-0.2,0.2-0.3c0-0.1,0.1-0.4,0.1-0.7v-2.4c0-0.6,0-1.3,0-1.9c0-0.7,0-1.1,0.1-1.3h-0.1l-2.5,6.3h-0.7l-2.3-6.4H255
		c0,0.3,0,0.7,0.1,1.4c0,0.7,0,1.4,0,2.1v2.3c0,0.3,0,0.5,0,0.6c0,0.1,0.1,0.2,0.1,0.3c0,0.1,0.1,0.1,0.2,0.2s0.2,0.1,0.4,0.2v0.3
		h-2.3v-0.3c0.3-0.1,0.4-0.1,0.5-0.2c0.1-0.1,0.1-0.2,0.2-0.4s0-0.4,0-0.7v-5.5c0-0.3,0-0.5,0-0.6c0-0.1-0.1-0.2-0.1-0.3
		s-0.1-0.1-0.2-0.2c-0.1,0-0.2-0.1-0.4-0.1v-0.3h2.3l2.2,6.2l2.5-6.2h2.1V130.9z"/>
	<path class="st5" d="M268.4,139.2v-0.3c0.2,0,0.4-0.1,0.5-0.1s0.2-0.1,0.2-0.2s0.1-0.2,0.1-0.4c0-0.1,0-0.3-0.1-0.5
		c0-0.2-0.1-0.4-0.1-0.6l-0.2-0.8h-3l-0.2,0.6c-0.1,0.3-0.2,0.6-0.2,0.7c0,0.2-0.1,0.3-0.1,0.4c0,0.3,0.1,0.4,0.2,0.6
		s0.3,0.2,0.6,0.2v0.3h-2.7v-0.3c0.2,0,0.4-0.2,0.6-0.4s0.3-0.6,0.5-1l2.6-7h1l2.2,7.1c0.1,0.3,0.2,0.6,0.3,0.8
		c0.1,0.2,0.2,0.3,0.3,0.4c0.1,0.1,0.3,0.2,0.5,0.2v0.3H268.4z M266,135.8h2.7l-1.2-4.1L266,135.8z"/>
	<path class="st5" d="M271.1,130.6h6.9v2.2h-0.6c-0.1-0.4-0.2-0.7-0.3-0.9c-0.1-0.2-0.2-0.4-0.3-0.5c-0.1-0.1-0.2-0.2-0.3-0.2
		s-0.3-0.1-0.5-0.1h-0.8v6.5c0,0.2,0,0.4,0,0.6c0,0.1,0.1,0.3,0.1,0.4c0.1,0.1,0.1,0.2,0.2,0.2c0.1,0,0.2,0.1,0.5,0.1v0.3h-2.9v-0.3
		c0.1,0,0.2-0.1,0.3-0.1c0.1,0,0.2-0.1,0.2-0.1s0.1-0.1,0.2-0.2s0.1-0.2,0.1-0.3s0-0.3,0-0.6v-6.5h-0.8c-0.2,0-0.4,0-0.5,0.1
		s-0.2,0.1-0.4,0.2c-0.1,0.1-0.2,0.3-0.3,0.5c-0.1,0.2-0.2,0.5-0.3,0.8h-0.6V130.6z"/>
	<path class="st5" d="M281.1,137.6c0,0.3,0,0.5,0,0.6c0,0.1,0.1,0.2,0.1,0.3c0,0.1,0.1,0.1,0.2,0.2s0.2,0.1,0.4,0.2v0.3h-2.7v-0.3
		c0.3-0.1,0.4-0.1,0.5-0.2c0.1-0.1,0.1-0.2,0.2-0.4s0-0.4,0-0.7v-5.5c0-0.3,0-0.5,0-0.6c0-0.1-0.1-0.2-0.1-0.3s-0.1-0.1-0.2-0.2
		c-0.1,0-0.2-0.1-0.4-0.1v-0.3h2.7v0.3c-0.2,0-0.3,0.1-0.4,0.1c-0.1,0-0.1,0.1-0.2,0.2c0,0.1-0.1,0.2-0.1,0.3c0,0.1,0,0.4,0,0.6
		V137.6z"/>
	<path class="st5" d="M289.2,130.7v1.8h-0.6c-0.1-0.4-0.2-0.7-0.4-0.9s-0.3-0.4-0.5-0.5c-0.2-0.1-0.5-0.1-0.7-0.1
		c-0.4,0-0.8,0.1-1.2,0.4s-0.6,0.7-0.8,1.3s-0.3,1.3-0.3,2.1c0,0.8,0.1,1.5,0.2,2.1s0.4,1,0.7,1.3c0.3,0.3,0.7,0.4,1.2,0.4
		c0.3,0,0.6,0,0.9-0.1s0.4-0.3,0.6-0.5s0.3-0.5,0.4-1h0.6v1.8c-0.4,0.1-0.8,0.2-1.2,0.2s-0.9,0.1-1.4,0.1c-1.1,0-1.9-0.4-2.4-1.1
		c-0.5-0.7-0.8-1.8-0.8-3.3c0-0.9,0.1-1.7,0.4-2.4c0.3-0.7,0.7-1.2,1.3-1.6c0.6-0.4,1.2-0.6,2-0.6c0.4,0,0.7,0,1.1,0.1
		S288.8,130.6,289.2,130.7z"/>
	<path class="st5" d="M291.2,137.2c0.1,0.4,0.2,0.7,0.3,0.9s0.3,0.4,0.6,0.5s0.5,0.2,0.9,0.2c0.5,0,0.9-0.1,1.1-0.4
		c0.3-0.3,0.4-0.6,0.4-1.1c0-0.3-0.1-0.6-0.2-0.8c-0.1-0.2-0.3-0.4-0.5-0.6c-0.2-0.2-0.6-0.4-1.1-0.7c-0.5-0.2-0.9-0.5-1.2-0.7
		c-0.3-0.2-0.5-0.5-0.6-0.8s-0.2-0.6-0.2-0.9c0-0.5,0.1-0.9,0.3-1.2c0.2-0.3,0.5-0.6,1-0.8s0.9-0.3,1.5-0.3c0.3,0,0.6,0,0.9,0.1
		c0.3,0,0.7,0.1,1.2,0.2v1.7h-0.6c-0.1-0.4-0.2-0.7-0.4-0.9s-0.3-0.4-0.5-0.4c-0.2-0.1-0.5-0.1-0.8-0.1c-0.3,0-0.5,0.1-0.7,0.2
		s-0.4,0.3-0.5,0.5s-0.2,0.5-0.2,0.7c0,0.3,0.1,0.6,0.2,0.8c0.1,0.2,0.3,0.4,0.5,0.6s0.6,0.4,1,0.6c0.5,0.3,1,0.5,1.3,0.8
		c0.3,0.2,0.5,0.5,0.7,0.8c0.2,0.3,0.2,0.6,0.2,1c0,0.4-0.1,0.8-0.2,1.1s-0.3,0.6-0.6,0.7c-0.2,0.2-0.5,0.3-0.9,0.4
		s-0.7,0.1-1.1,0.1c-0.7,0-1.4-0.1-2.3-0.3v-1.7H291.2z"/>
	<path class="st5" d="M301.9,137.6c0,0.3,0,0.5,0,0.6c0,0.1,0.1,0.2,0.1,0.3c0,0.1,0.1,0.1,0.2,0.2s0.2,0.1,0.4,0.2v0.3h-2.7v-0.3
		c0.3-0.1,0.4-0.1,0.5-0.2c0.1-0.1,0.1-0.2,0.2-0.4s0-0.4,0-0.7v-5.5c0-0.3,0-0.5,0-0.6c0-0.1-0.1-0.2-0.1-0.3s-0.1-0.1-0.2-0.2
		c-0.1,0-0.2-0.1-0.4-0.1v-0.3h2.7v0.3c-0.2,0-0.3,0.1-0.4,0.1c-0.1,0-0.1,0.1-0.2,0.2c0,0.1-0.1,0.2-0.1,0.3c0,0.1,0,0.4,0,0.6
		V137.6z"/>
	<path class="st5" d="M309.2,135.8c0.2,0.3,0.3,0.5,0.4,0.7s0.2,0.4,0.3,0.6h0.1c0-0.3,0-0.8-0.1-1.5c0-0.8,0-1.5,0-2.1v-1.3
		c0-0.3,0-0.5,0-0.6c0-0.1,0-0.2-0.1-0.3c0-0.1-0.1-0.1-0.2-0.2c-0.1,0-0.2-0.1-0.4-0.1v-0.3h2.3v0.3c-0.2,0.1-0.3,0.1-0.4,0.1
		s-0.1,0.1-0.2,0.2s-0.1,0.2-0.1,0.3s0,0.4,0,0.7v7.1H310l-3.5-5.9c-0.2-0.4-0.4-0.6-0.5-0.8c-0.1-0.2-0.2-0.3-0.3-0.5h-0.1
		c0,0.3,0.1,0.9,0.1,1.8s0,1.7,0,2.5v1.3c0,0.3,0,0.5,0,0.6c0,0.1,0.1,0.2,0.1,0.3c0,0.1,0.1,0.1,0.2,0.2s0.2,0.1,0.4,0.2v0.3h-2.3
		v-0.3c0.3-0.1,0.4-0.1,0.5-0.2c0.1-0.1,0.1-0.2,0.2-0.4s0-0.4,0-0.7v-5.5c0-0.3,0-0.5,0-0.6c0-0.1-0.1-0.2-0.1-0.3
		s-0.1-0.1-0.2-0.2c-0.1,0-0.2-0.1-0.4-0.1v-0.3h2L309.2,135.8z"/>
	<path class="st5" d="M318.8,130.6v1.9h-0.6c-0.1-0.3-0.2-0.5-0.3-0.7s-0.2-0.3-0.3-0.4c-0.1-0.1-0.2-0.2-0.3-0.2s-0.3-0.1-0.5-0.1
		h-1.9v3.5h1.3c0.2,0,0.3,0,0.4-0.1s0.2-0.2,0.3-0.3c0.1-0.1,0.1-0.4,0.2-0.7h0.6v2.7h-0.6c-0.1-0.3-0.1-0.5-0.2-0.7
		c-0.1-0.1-0.2-0.2-0.3-0.3s-0.2-0.1-0.4-0.1h-1.3v2.5c0,0.3,0,0.5,0,0.6s0.1,0.3,0.1,0.4c0.1,0.1,0.2,0.2,0.3,0.2
		c0.1,0,0.3,0.1,0.4,0.1v0.3H313v-0.3c0.3-0.1,0.4-0.1,0.5-0.2c0.1-0.1,0.1-0.2,0.2-0.4s0-0.4,0-0.7v-5.5c0-0.3,0-0.5,0-0.6
		c0-0.1-0.1-0.2-0.1-0.3s-0.1-0.1-0.2-0.2c-0.1,0-0.2-0.1-0.4-0.1v-0.3H318.8z"/>
	<path class="st5" d="M321.9,135.5v2.2c0,0.3,0,0.5,0,0.7s0.1,0.2,0.1,0.3c0,0.1,0.1,0.1,0.2,0.2c0.1,0,0.2,0.1,0.4,0.1v0.3H320
		v-0.3c0.3-0.1,0.4-0.1,0.5-0.2c0.1-0.1,0.1-0.2,0.2-0.4s0-0.4,0-0.7v-5.5c0-0.3,0-0.5,0-0.6c0-0.1-0.1-0.2-0.1-0.3
		s-0.1-0.1-0.2-0.2c-0.1,0-0.2-0.1-0.4-0.1v-0.3h3.1c1,0,1.7,0.2,2.2,0.5s0.7,0.9,0.7,1.7c0,0.6-0.2,1.1-0.5,1.5s-0.8,0.7-1.4,1v0.1
		c0.3,0.1,0.5,0.3,0.7,0.5c0.2,0.2,0.4,0.5,0.6,0.9l0.6,1c0.2,0.3,0.3,0.5,0.4,0.7c0.1,0.2,0.2,0.3,0.4,0.4c0.1,0.1,0.3,0.1,0.5,0.2
		v0.3h-1.8c-0.2-0.2-0.3-0.5-0.5-0.7c-0.1-0.3-0.3-0.5-0.4-0.8l-0.6-1.1c-0.2-0.3-0.3-0.6-0.4-0.7c-0.1-0.2-0.2-0.3-0.3-0.3
		s-0.2-0.1-0.3-0.1s-0.3,0-0.5,0H321.9z M321.9,131.1v3.8h0.7c0.4,0,0.7,0,0.9-0.1s0.4-0.2,0.6-0.3c0.2-0.1,0.4-0.4,0.5-0.6
		s0.2-0.6,0.2-1c0-0.4-0.1-0.7-0.2-1s-0.3-0.5-0.6-0.6s-0.7-0.2-1.1-0.2C322.5,131.1,322.1,131.1,321.9,131.1z"/>
	<path class="st5" d="M332.3,139.2v-0.3c0.2,0,0.4-0.1,0.5-0.1s0.2-0.1,0.2-0.2s0.1-0.2,0.1-0.4c0-0.1,0-0.3-0.1-0.5
		c0-0.2-0.1-0.4-0.1-0.6l-0.2-0.8h-3l-0.2,0.6c-0.1,0.3-0.2,0.6-0.2,0.7c0,0.2-0.1,0.3-0.1,0.4c0,0.3,0.1,0.4,0.2,0.6
		s0.3,0.2,0.6,0.2v0.3h-2.7v-0.3c0.2,0,0.4-0.2,0.6-0.4s0.3-0.6,0.5-1l2.6-7h1l2.2,7.1c0.1,0.3,0.2,0.6,0.3,0.8
		c0.1,0.2,0.2,0.3,0.3,0.4c0.1,0.1,0.3,0.2,0.5,0.2v0.3H332.3z M329.9,135.8h2.7l-1.2-4.1L329.9,135.8z"/>
	<path class="st5" d="M336.5,137.2c0.1,0.4,0.2,0.7,0.3,0.9s0.3,0.4,0.6,0.5s0.5,0.2,0.9,0.2c0.5,0,0.9-0.1,1.1-0.4
		c0.3-0.3,0.4-0.6,0.4-1.1c0-0.3-0.1-0.6-0.2-0.8c-0.1-0.2-0.3-0.4-0.5-0.6c-0.2-0.2-0.6-0.4-1.1-0.7c-0.5-0.2-0.9-0.5-1.2-0.7
		c-0.3-0.2-0.5-0.5-0.6-0.8s-0.2-0.6-0.2-0.9c0-0.5,0.1-0.9,0.3-1.2c0.2-0.3,0.5-0.6,1-0.8s0.9-0.3,1.5-0.3c0.3,0,0.6,0,0.9,0.1
		c0.3,0,0.7,0.1,1.2,0.2v1.7h-0.6c-0.1-0.4-0.2-0.7-0.4-0.9s-0.3-0.4-0.5-0.4c-0.2-0.1-0.5-0.1-0.8-0.1c-0.3,0-0.5,0.1-0.7,0.2
		s-0.4,0.3-0.5,0.5s-0.2,0.5-0.2,0.7c0,0.3,0.1,0.6,0.2,0.8c0.1,0.2,0.3,0.4,0.5,0.6s0.6,0.4,1,0.6c0.5,0.3,1,0.5,1.3,0.8
		c0.3,0.2,0.5,0.5,0.7,0.8c0.2,0.3,0.2,0.6,0.2,1c0,0.4-0.1,0.8-0.2,1.1s-0.3,0.6-0.6,0.7c-0.2,0.2-0.5,0.3-0.9,0.4
		s-0.7,0.1-1.1,0.1c-0.7,0-1.4-0.1-2.3-0.3v-1.7H336.5z"/>
	<path class="st5" d="M341.9,130.6h6.9v2.2h-0.6c-0.1-0.4-0.2-0.7-0.3-0.9c-0.1-0.2-0.2-0.4-0.3-0.5c-0.1-0.1-0.2-0.2-0.3-0.2
		s-0.3-0.1-0.5-0.1h-0.8v6.5c0,0.2,0,0.4,0,0.6c0,0.1,0.1,0.3,0.1,0.4c0.1,0.1,0.1,0.2,0.2,0.2c0.1,0,0.2,0.1,0.5,0.1v0.3h-2.9v-0.3
		c0.1,0,0.2-0.1,0.3-0.1c0.1,0,0.2-0.1,0.2-0.1s0.1-0.1,0.2-0.2s0.1-0.2,0.1-0.3s0-0.3,0-0.6v-6.5h-0.8c-0.2,0-0.4,0-0.5,0.1
		s-0.2,0.1-0.4,0.2c-0.1,0.1-0.2,0.3-0.3,0.5c-0.1,0.2-0.2,0.5-0.3,0.8h-0.6V130.6z"/>
	<path class="st5" d="M351.9,135.5v2.2c0,0.3,0,0.5,0,0.7s0.1,0.2,0.1,0.3c0,0.1,0.1,0.1,0.2,0.2c0.1,0,0.2,0.1,0.4,0.1v0.3H350
		v-0.3c0.3-0.1,0.4-0.1,0.5-0.2c0.1-0.1,0.1-0.2,0.2-0.4s0-0.4,0-0.7v-5.5c0-0.3,0-0.5,0-0.6c0-0.1-0.1-0.2-0.1-0.3
		s-0.1-0.1-0.2-0.2c-0.1,0-0.2-0.1-0.4-0.1v-0.3h3.1c1,0,1.7,0.2,2.2,0.5s0.7,0.9,0.7,1.7c0,0.6-0.2,1.1-0.5,1.5s-0.8,0.7-1.4,1v0.1
		c0.3,0.1,0.5,0.3,0.7,0.5c0.2,0.2,0.4,0.5,0.6,0.9l0.6,1c0.2,0.3,0.3,0.5,0.4,0.7c0.1,0.2,0.2,0.3,0.4,0.4c0.1,0.1,0.3,0.1,0.5,0.2
		v0.3h-1.8c-0.2-0.2-0.3-0.5-0.5-0.7c-0.1-0.3-0.3-0.5-0.4-0.8l-0.6-1.1c-0.2-0.3-0.3-0.6-0.4-0.7c-0.1-0.2-0.2-0.3-0.3-0.3
		s-0.2-0.1-0.3-0.1s-0.3,0-0.5,0H351.9z M351.9,131.1v3.8h0.7c0.4,0,0.7,0,0.9-0.1s0.4-0.2,0.6-0.3c0.2-0.1,0.4-0.4,0.5-0.6
		s0.2-0.6,0.2-1c0-0.4-0.1-0.7-0.2-1s-0.3-0.5-0.6-0.6s-0.7-0.2-1.1-0.2C352.4,131.1,352.1,131.1,351.9,131.1z"/>
	<path class="st5" d="M364.1,136.2c0,0.5,0,0.9-0.1,1.2c-0.1,0.3-0.2,0.6-0.4,0.8c-0.1,0.2-0.3,0.4-0.6,0.6
		c-0.2,0.2-0.5,0.3-0.8,0.4c-0.3,0.1-0.7,0.1-1.1,0.1c-0.5,0-1-0.1-1.3-0.2c-0.4-0.1-0.7-0.3-0.9-0.6c-0.2-0.3-0.4-0.6-0.5-0.9
		c-0.1-0.4-0.2-0.8-0.2-1.3v-4.2c0-0.3,0-0.6,0-0.7c0-0.1-0.1-0.2-0.1-0.3s-0.1-0.1-0.2-0.2s-0.2-0.1-0.4-0.2v-0.3h2.7v0.3
		c-0.2,0.1-0.4,0.1-0.5,0.2s-0.2,0.2-0.2,0.3s-0.1,0.4-0.1,0.7v4.5c0,0.4,0,0.8,0.1,1s0.2,0.5,0.4,0.7s0.3,0.3,0.6,0.3
		c0.2,0.1,0.5,0.1,0.8,0.1c0.3,0,0.6-0.1,0.8-0.2s0.4-0.3,0.6-0.5c0.2-0.2,0.3-0.5,0.3-0.8c0.1-0.3,0.1-0.7,0.1-1.2v-4
		c0-0.4,0-0.6-0.1-0.8s-0.1-0.2-0.2-0.3c-0.1-0.1-0.3-0.1-0.5-0.2v-0.3h2.5v0.3c-0.2,0.1-0.4,0.1-0.5,0.2s-0.2,0.2-0.2,0.3
		c0,0.1-0.1,0.4-0.1,0.7V136.2z"/>
	<path class="st5" d="M372,130.7v1.8h-0.6c-0.1-0.4-0.2-0.7-0.4-0.9s-0.3-0.4-0.5-0.5c-0.2-0.1-0.5-0.1-0.7-0.1
		c-0.4,0-0.8,0.1-1.2,0.4s-0.6,0.7-0.8,1.3s-0.3,1.3-0.3,2.1c0,0.8,0.1,1.5,0.2,2.1s0.4,1,0.7,1.3c0.3,0.3,0.7,0.4,1.2,0.4
		c0.3,0,0.6,0,0.9-0.1s0.4-0.3,0.6-0.5s0.3-0.5,0.4-1h0.6v1.8c-0.4,0.1-0.8,0.2-1.2,0.2s-0.9,0.1-1.4,0.1c-1.1,0-1.9-0.4-2.4-1.1
		c-0.5-0.7-0.8-1.8-0.8-3.3c0-0.9,0.1-1.7,0.4-2.4c0.3-0.7,0.7-1.2,1.3-1.6c0.6-0.4,1.2-0.6,2-0.6c0.4,0,0.7,0,1.1,0.1
		S371.6,130.6,372,130.7z"/>
	<path class="st5" d="M373.1,130.6h6.9v2.2h-0.6c-0.1-0.4-0.2-0.7-0.3-0.9c-0.1-0.2-0.2-0.4-0.3-0.5c-0.1-0.1-0.2-0.2-0.3-0.2
		s-0.3-0.1-0.5-0.1h-0.8v6.5c0,0.2,0,0.4,0,0.6c0,0.1,0.1,0.3,0.1,0.4c0.1,0.1,0.1,0.2,0.2,0.2c0.1,0,0.2,0.1,0.5,0.1v0.3h-2.9v-0.3
		c0.1,0,0.2-0.1,0.3-0.1c0.1,0,0.2-0.1,0.2-0.1s0.1-0.1,0.2-0.2s0.1-0.2,0.1-0.3s0-0.3,0-0.6v-6.5h-0.8c-0.2,0-0.4,0-0.5,0.1
		s-0.2,0.1-0.4,0.2c-0.1,0.1-0.2,0.3-0.3,0.5c-0.1,0.2-0.2,0.5-0.3,0.8h-0.6V130.6z"/>
	<path class="st5" d="M387.5,136.2c0,0.5,0,0.9-0.1,1.2c-0.1,0.3-0.2,0.6-0.4,0.8c-0.1,0.2-0.3,0.4-0.6,0.6
		c-0.2,0.2-0.5,0.3-0.8,0.4c-0.3,0.1-0.7,0.1-1.1,0.1c-0.5,0-1-0.1-1.3-0.2c-0.4-0.1-0.7-0.3-0.9-0.6c-0.2-0.3-0.4-0.6-0.5-0.9
		c-0.1-0.4-0.2-0.8-0.2-1.3v-4.2c0-0.3,0-0.6,0-0.7c0-0.1-0.1-0.2-0.1-0.3s-0.1-0.1-0.2-0.2s-0.2-0.1-0.4-0.2v-0.3h2.7v0.3
		c-0.2,0.1-0.4,0.1-0.5,0.2s-0.2,0.2-0.2,0.3s-0.1,0.4-0.1,0.7v4.5c0,0.4,0,0.8,0.1,1s0.2,0.5,0.4,0.7s0.3,0.3,0.6,0.3
		c0.2,0.1,0.5,0.1,0.8,0.1c0.3,0,0.6-0.1,0.8-0.2s0.4-0.3,0.6-0.5c0.2-0.2,0.3-0.5,0.3-0.8c0.1-0.3,0.1-0.7,0.1-1.2v-4
		c0-0.4,0-0.6-0.1-0.8s-0.1-0.2-0.2-0.3c-0.1-0.1-0.3-0.1-0.5-0.2v-0.3h2.5v0.3c-0.2,0.1-0.4,0.1-0.5,0.2s-0.2,0.2-0.2,0.3
		c0,0.1-0.1,0.4-0.1,0.7V136.2z"/>
	<path class="st5" d="M391.5,135.5v2.2c0,0.3,0,0.5,0,0.7s0.1,0.2,0.1,0.3c0,0.1,0.1,0.1,0.2,0.2c0.1,0,0.2,0.1,0.4,0.1v0.3h-2.7
		v-0.3c0.3-0.1,0.4-0.1,0.5-0.2c0.1-0.1,0.1-0.2,0.2-0.4s0-0.4,0-0.7v-5.5c0-0.3,0-0.5,0-0.6c0-0.1-0.1-0.2-0.1-0.3
		s-0.1-0.1-0.2-0.2c-0.1,0-0.2-0.1-0.4-0.1v-0.3h3.1c1,0,1.7,0.2,2.2,0.5s0.7,0.9,0.7,1.7c0,0.6-0.2,1.1-0.5,1.5s-0.8,0.7-1.4,1v0.1
		c0.3,0.1,0.5,0.3,0.7,0.5c0.2,0.2,0.4,0.5,0.6,0.9l0.6,1c0.2,0.3,0.3,0.5,0.4,0.7c0.1,0.2,0.2,0.3,0.4,0.4c0.1,0.1,0.3,0.1,0.5,0.2
		v0.3h-1.8c-0.2-0.2-0.3-0.5-0.5-0.7c-0.1-0.3-0.3-0.5-0.4-0.8l-0.6-1.1c-0.2-0.3-0.3-0.6-0.4-0.7c-0.1-0.2-0.2-0.3-0.3-0.3
		s-0.2-0.1-0.3-0.1s-0.3,0-0.5,0H391.5z M391.5,131.1v3.8h0.7c0.4,0,0.7,0,0.9-0.1s0.4-0.2,0.6-0.3c0.2-0.1,0.4-0.4,0.5-0.6
		s0.2-0.6,0.2-1c0-0.4-0.1-0.7-0.2-1s-0.3-0.5-0.6-0.6s-0.7-0.2-1.1-0.2C392.1,131.1,391.8,131.1,391.5,131.1z"/>
	<path class="st5" d="M403.6,130.6v1.9H403c-0.1-0.2-0.1-0.4-0.2-0.5c-0.1-0.2-0.1-0.3-0.2-0.4c-0.1-0.1-0.2-0.2-0.2-0.3
		c-0.1-0.1-0.2-0.1-0.3-0.1s-0.3,0-0.4,0h-2v3.3h1.4c0.2,0,0.3,0,0.4-0.1s0.2-0.1,0.3-0.3c0.1-0.1,0.1-0.3,0.2-0.6h0.6v2.4h-0.6
		c-0.1-0.3-0.1-0.4-0.2-0.6s-0.2-0.2-0.3-0.3s-0.2-0.1-0.4-0.1h-1.4v3.7h2c0.2,0,0.4,0,0.5-0.1s0.2-0.1,0.3-0.2s0.2-0.2,0.2-0.3
		c0.1-0.1,0.1-0.3,0.2-0.4s0.1-0.4,0.2-0.7h0.6l-0.1,2.2h-5.9v-0.3c0.3-0.1,0.4-0.1,0.5-0.2c0.1-0.1,0.1-0.2,0.2-0.4s0-0.4,0-0.7
		v-5.5c0-0.3,0-0.5,0-0.6c0-0.1-0.1-0.2-0.1-0.3s-0.1-0.1-0.2-0.2c-0.1,0-0.2-0.1-0.4-0.1v-0.3H403.6z"/>
</g>
<g>
	<ellipse transform="matrix(0.9788 -0.205 0.205 0.9788 -10.0725 37.2933)" class="st0" cx="175" cy="67.3" rx="3.5" ry="3.5"/>
</g>
<g>
	<ellipse transform="matrix(0.9788 -0.205 0.205 0.9788 -20.4024 44.2409)" class="st0" cx="203.4" cy="120.6" rx="3.5" ry="3.5"/>
</g>
<g>
	<ellipse transform="matrix(0.9788 -0.205 0.205 0.9788 -18.9803 48.0292)" class="st0" cx="222.4" cy="115.6" rx="3.5" ry="3.5"/>
</g>
<g>
	<ellipse transform="matrix(0.9788 -0.205 0.205 0.9788 -6.2026 44.8071)" class="st0" cx="213.2" cy="52.3" rx="3.5" ry="3.5"/>
</g>
<g>
	<ellipse transform="matrix(0.9788 -0.205 0.205 0.9788 -12.6615 36.5019)" class="st0" cx="169.9" cy="79.4" rx="3.5" ry="3.5"/>
</g>
<g>
	<ellipse transform="matrix(0.9788 -0.205 0.205 0.9788 -11.5333 50.6759)" class="st0" cx="238.9" cy="81" rx="3.5" ry="3.5"/>
</g>
</svg>
